<svg id="Group_10" data-name="Group 10" xmlns="http://www.w3.org/2000/svg" xmlns:xlink="http://www.w3.org/1999/xlink" width="44.349" height="47" viewBox="0 0 44.349 47">
  <defs>
    <linearGradient id="linear-gradient" x1="-0.07" y1="-1.562" x2="0.99" y2="-1.562" gradientUnits="objectBoundingBox">
      <stop offset="0" stop-color="#00bcf9"/>
      <stop offset="1" stop-color="#0251c7"/>
    </linearGradient>
  </defs>
  <g id="Group_6" data-name="Group 6" transform="translate(0 0)">
    <path id="Path_3" data-name="Path 3" d="M209,136.817a11.383,11.383,0,0,0-9.771,5.729,31.941,31.941,0,0,0-3.6,8.948,39.94,39.94,0,0,0-1.1,9.369,36.61,36.61,0,0,0,2.558,13.823c1.831,4.392,4.568,7.651,7.947,8.752,3.9,1.27,9.925-.9,15.819-4.48,9.174-5.57,18.025-14.549,18.025-19.268a3.3,3.3,0,0,0-.044-.546c0-.009,0-.016,0-.025a16.1,16.1,0,0,0-2.426-5.711C231.112,145.13,218.654,136.417,209,136.817Z" transform="translate(-194.525 -136.804)" fill="url(#linear-gradient)"/>
  </g>
  <g id="Group_9" data-name="Group 9" transform="translate(9.584 14.608)">
    <g id="Group_8" data-name="Group 8">
      <g id="Group_7" data-name="Group 7">
        <path id="Path_4" data-name="Path 4" d="M234.511,170.633a.179.179,0,0,0-.076.15,12.349,12.349,0,0,1-.091,2.086,13.772,13.772,0,0,1-1.206,4.188,13.418,13.418,0,0,1-2.546,3.712,12.562,12.562,0,0,1-6.459,3.6,13.766,13.766,0,0,1-2.623.31,13.268,13.268,0,0,1-7.531-2.02c-.025-.016-.051-.033-.11-.074a9.468,9.468,0,0,0,4.708-.646,9.281,9.281,0,0,0,2.238-1.306,4.723,4.723,0,0,1-4.381-3.259,4.681,4.681,0,0,0,2.019-.066.178.178,0,0,0,.068-.025,4.738,4.738,0,0,1-3.059-2.161,4.607,4.607,0,0,1-.687-2.5,4.685,4.685,0,0,0,2.094.578,4.757,4.757,0,0,1-1.934-2.857,4.7,4.7,0,0,1,.5-3.41,13.455,13.455,0,0,0,9.7,4.917c-.025-.185-.051-.351-.075-.519a4.618,4.618,0,0,1,.688-3.074,4.508,4.508,0,0,1,3.191-2.12,4.579,4.579,0,0,1,4.122,1.306.236.236,0,0,0,.252.076,9.421,9.421,0,0,0,2.73-1.055c.025-.009.041-.017.068-.025,0-.009.007-.009.024-.009a4.779,4.779,0,0,1-2.01,2.564,9.22,9.22,0,0,0,2.622-.7c0,.009.009.009.016.017-.184.234-.352.477-.543.712A9.012,9.012,0,0,1,234.511,170.633Z" transform="translate(-213.868 -166.062)" fill="#fff"/>
      </g>
    </g>
  </g>
</svg>
